<svg xmlns="http://www.w3.org/2000/svg" width="390" height="115" fill="none" viewBox="0 0 390 115">
  <g filter="url(#a)">
    <path fill="#fff" d="M389.999 115H0V50.003h139.657c6.78.434 11.885 5.308 17.292 10.481l-1.469-1.401 2.41 2.3c2.888 2.752 5.387 5.423 7.8 8.007 8.469 9.06 15.157 16.215 29.684 16.385h.51c13.541 0 19.656-6.45 27.406-14.614 2.729-2.876 5.548-5.85 8.997-8.912a93.069 93.069 0 0 1 10.262-8.283 21.687 21.687 0 0 1 10.102-3.915c.173-.016.345-.034.51-.051h136.838v65Z"/>
  </g>
</svg>
