<svg xmlns="http://www.w3.org/2000/svg" width="157" height="159" fill="none" viewBox="0 0 157 159">
  <path fill="#DDF2DD" d="M95.57 11.352c34.204 23.06 73.684 58.902 56.11 93.319-17.575 34.418-32.511 54.891-74.68 48.632C34.833 147.045-5.95 114.894.72 76.086c6.671-38.81 60.647-87.79 94.85-64.734Z" opacity=".1"/>
  <path fill="#CEFFDB" d="m113.345 9.21-71.339-.646a5.542 5.542 0 0 0-5.592 5.492l-1.178 130.142a5.541 5.541 0 0 0 5.492 5.592l71.338.646a5.543 5.543 0 0 0 5.593-5.492l1.178-130.142a5.543 5.543 0 0 0-5.492-5.592Z"/>
  <path fill="#6AB77F" d="m110.346 17.314-65.515-.568a4.988 4.988 0 0 0-5.031 4.945l-1.031 119a4.988 4.988 0 0 0 4.944 5.031l65.515.568a4.988 4.988 0 0 0 5.031-4.944l1.031-119a4.988 4.988 0 0 0-4.944-5.032Z"/>
  <path fill="#fff" d="m61.993 87.73-12.17-.105a1.187 1.187 0 0 0-1.198 1.177l-.105 12.17a1.188 1.188 0 0 0 1.176 1.198l12.17.106a1.188 1.188 0 0 0 1.199-1.177l.105-12.17a1.187 1.187 0 0 0-1.177-1.198Zm-.153 17.882-12.171-.106a1.188 1.188 0 0 0-1.198 1.177l-.105 12.171a1.186 1.186 0 0 0 1.177 1.197l12.17.106a1.187 1.187 0 0 0 1.198-1.177l.105-12.171a1.188 1.188 0 0 0-1.177-1.197Zm-.153 18.145-12.17-.106a1.188 1.188 0 0 0-1.198 1.177l-.105 12.171a1.186 1.186 0 0 0 1.177 1.197l12.17.106a1.187 1.187 0 0 0 1.198-1.177l.105-12.171a1.187 1.187 0 0 0-1.177-1.197ZM83.11 87.985l-12.17-.106a1.187 1.187 0 0 0-1.198 1.177l-.105 12.171a1.186 1.186 0 0 0 1.177 1.197l12.17.106a1.187 1.187 0 0 0 1.198-1.177l.105-12.17a1.187 1.187 0 0 0-1.177-1.198Zm-.15 17.807-12.17-.106a1.187 1.187 0 0 0-1.198 1.177l-.106 12.171a1.187 1.187 0 0 0 1.177 1.197l12.17.106a1.188 1.188 0 0 0 1.198-1.177l.106-12.171a1.186 1.186 0 0 0-1.177-1.197Zm-.156 17.958-12.17-.105a1.187 1.187 0 0 0-1.198 1.177l-.106 12.17a1.188 1.188 0 0 0 1.177 1.198l12.171.105a1.187 1.187 0 0 0 1.198-1.177l.105-12.17a1.188 1.188 0 0 0-1.177-1.198Zm21.415-35.77-12.17-.106a1.187 1.187 0 0 0-1.199 1.177l-.105 12.17a1.188 1.188 0 0 0 1.177 1.198l12.171.105a1.187 1.187 0 0 0 1.197-1.177l.106-12.17a1.188 1.188 0 0 0-1.177-1.198Zm-.151 17.99-12.17-.105a1.187 1.187 0 0 0-1.198 1.177l-.105 12.17a1.188 1.188 0 0 0 1.177 1.198l12.17.105a1.187 1.187 0 0 0 1.198-1.177l.105-12.17a1.187 1.187 0 0 0-1.177-1.198Zm-.154 17.882-12.17-.105a1.187 1.187 0 0 0-1.198 1.177l-.105 12.17a1.188 1.188 0 0 0 1.177 1.198l12.17.105a1.187 1.187 0 0 0 1.198-1.177l.105-12.17a1.187 1.187 0 0 0-1.177-1.198Z" opacity=".25"/>
  <path fill="#000" d="m67.888 11.719 19.487.169-.015 1.743-19.487-.17.015-1.742Z" opacity=".1"/>
  <path stroke="#fff" stroke-linecap="round" stroke-opacity=".5" d="M49.736 73.218h53.626"/>
  <path stroke="#fff" stroke-linecap="round" stroke-opacity=".5" stroke-width="2" d="M48.065 28.12h12.57m-12.57 5.934h20.877"/>
  <path fill="#fff" fill-opacity=".4" d="M16.883 57.327a2.209 2.209 0 1 0 0-4.417 2.209 2.209 0 0 0 0 4.417Zm132.689 74.817a2.573 2.573 0 1 0-.001-5.145 2.573 2.573 0 0 0 .001 5.145ZM24.693 48.494a1.022 1.022 0 1 0 0-2.044 1.022 1.022 0 0 0 0 2.044Z"/>
  <path stroke="#fff" stroke-opacity=".4" stroke-width=".8" d="M5.46 131.44a2.147 2.147 0 1 0 0-4.294 2.147 2.147 0 0 0 0 4.294ZM146.797 17.808a2.74 2.74 0 1 0 0-5.481 2.74 2.74 0 0 0 0 5.48Z"/>
  <path fill="#fff" d="M145.401 43.23H87.247a4.747 4.747 0 0 0-4.747 4.748v10.681a4.747 4.747 0 0 0 4.747 4.747h58.154a4.748 4.748 0 0 0 4.748-4.747V47.978a4.748 4.748 0 0 0-4.748-4.748Z"/>
  <path fill="#5DB075" d="M114.159 54.416h-5.986a.75.75 0 0 1-.749-.748.75.75 0 0 1 .749-.749h5.985a.748.748 0 0 1 0 1.497h.001Z"/>
  <path fill="#5DB075" d="M109.668 57.005a.748.748 0 0 1-.648-1.123l2.993-5.185a.748.748 0 0 1 1.295.748l-2.993 5.185a.74.74 0 0 1-.647.375Z"/>
  <path fill="#5DB075" d="M112.662 57.005a.743.743 0 0 1-.648-.373l-2.994-5.185a.75.75 0 0 1 .28-1.011.749.749 0 0 1 1.015.263l2.993 5.185a.746.746 0 0 1-.648 1.123l.002-.002Zm-9.186-2.589H97.49a.748.748 0 1 1 0-1.497h5.985a.75.75 0 0 1 .748.749.75.75 0 0 1-.748.748h.001Z"/>
  <path fill="#5DB075" d="M98.985 57.005a.748.748 0 0 1-.648-1.123l2.993-5.185a.748.748 0 0 1 1.295.748l-2.993 5.185a.747.747 0 0 1-.647.375Z"/>
  <path fill="#5DB075" d="M101.98 57.005a.749.749 0 0 1-.648-.373l-2.993-5.185a.748.748 0 0 1 1.295-.748l2.993 5.185a.746.746 0 0 1-.648 1.123l.001-.002Zm-9.185-2.589h-5.987a.748.748 0 1 1 0-1.497h5.985a.749.749 0 0 1 0 1.497h.002Z"/>
  <path fill="#5DB075" d="M88.304 57.005a.748.748 0 0 1-.648-1.123l2.993-5.185a.748.748 0 0 1 1.295.748l-2.993 5.185a.748.748 0 0 1-.647.375Z"/>
  <path fill="#5DB075" d="M91.299 57.005a.748.748 0 0 1-.648-.373l-2.993-5.185a.748.748 0 0 1 1.294-.748l2.994 5.185a.748.748 0 0 1-.648 1.123v-.002Zm44.221-2.589h-5.987a.75.75 0 0 1-.529-1.277.75.75 0 0 1 .529-.22h5.986a.75.75 0 0 1 .748.749.75.75 0 0 1-.748.748h.001Z"/>
  <path fill="#5DB075" d="M131.029 57.005a.745.745 0 0 1-.649-.374.756.756 0 0 1 .001-.748l2.993-5.186a.748.748 0 0 1 1.295.748l-2.993 5.185a.748.748 0 0 1-.647.375Z"/>
  <path fill="#5DB075" d="M134.022 57.005a.749.749 0 0 1-.648-.373l-2.993-5.185a.75.75 0 0 1 .28-1.011.746.746 0 0 1 1.015.263l2.993 5.185a.746.746 0 0 1-.648 1.123l.001-.002Zm12.179-2.589h-5.986a.75.75 0 0 1-.749-.748.75.75 0 0 1 .749-.749h5.985a.75.75 0 0 1 .748.749.75.75 0 0 1-.748.748h.001Z"/>
  <path fill="#5DB075" d="M141.71 57.005a.748.748 0 0 1-.648-1.123l2.993-5.185a.748.748 0 0 1 1.295.748l-2.993 5.185a.748.748 0 0 1-.647.375Z"/>
  <path fill="#5DB075" d="M144.704 57.005a.743.743 0 0 1-.648-.373l-2.994-5.185a.75.75 0 0 1 .28-1.011.749.749 0 0 1 1.015.263l2.993 5.185a.746.746 0 0 1-.648 1.123l.002-.002Zm-20.227-4.066h-1.697l.848-1.47a.75.75 0 0 0-.274-1.021.749.749 0 0 0-1.022.274l-.848 1.47-.849-1.47a.747.747 0 0 0-1.022-.274.75.75 0 0 0-.274 1.022l.849 1.469h-1.698a.75.75 0 0 0-.529 1.277.75.75 0 0 0 .529.22h1.698l-.849 1.469a.754.754 0 0 0-.075.567.756.756 0 0 0 .349.455.749.749 0 0 0 1.023-.274l.848-1.47.848 1.47a.75.75 0 0 0 1.391-.472.736.736 0 0 0-.094-.276l-.848-1.47h1.696a.748.748 0 0 0 0-1.496Z"/>
</svg>
